<svg xmlns="http://www.w3.org/2000/svg" width="1200" height="630" viewBox="0 0 1200 630">
  <rect width="1200" height="630" fill="#F7F4ED"/>
  <text x="64" y="74" font-family="Helvetica Neue, Helvetica, Arial, sans-serif" font-size="34" font-weight="700" fill="#242424" letter-spacing="-0.7">Rent growth has slowed every month of 2026</text>
  <text x="64" y="110" font-family="Charter, Georgia, serif" font-size="21" fill="#6B6B6B">Change in the residential rent index, month on month</text>
  <line x1="90" y1="535" x2="1110" y2="535" stroke="#E1DBCE" stroke-width="1"/><path d="M110.4 535 L110.4 304.37744641192916 Q110.4 300.37744641192916 114.4 300.37744641192916
      L150.60000000000002 300.37744641192916 Q154.60000000000002 300.37744641192916 154.60000000000002 304.37744641192916 L154.60000000000002 535 Z" fill="#1A7F4B"/><text x="132.5" y="284.37744641192916" text-anchor="middle" font-family="Helvetica Neue, Helvetica, Arial, sans-serif" font-size="21" font-weight="700" fill="#242424">0.53</text><text x="132.5" y="567" text-anchor="middle" font-family="Helvetica Neue, Helvetica, Arial, sans-serif" font-size="17" fill="#6B6B6B">25/08</text><path d="M195.4 535 L195.4 224.6943150046598 Q195.4 220.6943150046598 199.4 220.6943150046598
      L235.60000000000002 220.6943150046598 Q239.60000000000002 220.6943150046598 239.60000000000002 224.6943150046598 L239.60000000000002 535 Z" fill="#1A7F4B"/><text x="217.5" y="204.6943150046598" text-anchor="middle" font-family="Helvetica Neue, Helvetica, Arial, sans-serif" font-size="21" font-weight="700" fill="#242424">0.71</text><text x="217.5" y="567" text-anchor="middle" font-family="Helvetica Neue, Helvetica, Arial, sans-serif" font-size="17" fill="#6B6B6B">25/09</text><path d="M280.4 535 L280.4 242.4016775396085 Q280.4 238.4016775396085 284.4 238.4016775396085
      L320.59999999999997 238.4016775396085 Q324.59999999999997 238.4016775396085 324.59999999999997 242.4016775396085 L324.59999999999997 535 Z" fill="#1A7F4B"/><text x="302.5" y="222.4016775396085" text-anchor="middle" font-family="Helvetica Neue, Helvetica, Arial, sans-serif" font-size="21" font-weight="700" fill="#242424">0.67</text><text x="302.5" y="567" text-anchor="middle" font-family="Helvetica Neue, Helvetica, Arial, sans-serif" font-size="17" fill="#6B6B6B">25/10</text><path d="M365.4 535 L365.4 237.97483690587137 Q365.4 233.97483690587137 369.4 233.97483690587137
      L405.59999999999997 233.97483690587137 Q409.59999999999997 233.97483690587137 409.59999999999997 237.97483690587137 L409.59999999999997 535 Z" fill="#1A7F4B"/><text x="387.5" y="217.97483690587137" text-anchor="middle" font-family="Helvetica Neue, Helvetica, Arial, sans-serif" font-size="21" font-weight="700" fill="#242424">0.68</text><text x="387.5" y="567" text-anchor="middle" font-family="Helvetica Neue, Helvetica, Arial, sans-serif" font-size="17" fill="#6B6B6B">25/11</text><path d="M450.4 535 L450.4 273.38956197576886 Q450.4 269.38956197576886 454.4 269.38956197576886
      L490.59999999999997 269.38956197576886 Q494.59999999999997 269.38956197576886 494.59999999999997 273.38956197576886 L494.59999999999997 535 Z" fill="#1A7F4B"/><text x="472.5" y="253.38956197576886" text-anchor="middle" font-family="Helvetica Neue, Helvetica, Arial, sans-serif" font-size="21" font-weight="700" fill="#242424">0.60</text><text x="472.5" y="567" text-anchor="middle" font-family="Helvetica Neue, Helvetica, Arial, sans-serif" font-size="17" fill="#6B6B6B">25/12</text><path d="M535.4 535 L535.4 211.41379310344826 Q535.4 207.41379310344826 539.4 207.41379310344826
      L575.6 207.41379310344826 Q579.6 207.41379310344826 579.6 211.41379310344826 L579.6 535 Z" fill="#1A7F4B"/><text x="557.5" y="191.41379310344826" text-anchor="middle" font-family="Helvetica Neue, Helvetica, Arial, sans-serif" font-size="21" font-weight="700" fill="#242424">0.74</text><text x="557.5" y="567" text-anchor="middle" font-family="Helvetica Neue, Helvetica, Arial, sans-serif" font-size="17" fill="#6B6B6B">26/01</text><path d="M620.4 535 L620.4 233.54799627213418 Q620.4 229.54799627213418 624.4 229.54799627213418
      L660.6 229.54799627213418 Q664.6 229.54799627213418 664.6 233.54799627213418 L664.6 535 Z" fill="#1A7F4B"/><text x="642.5" y="213.54799627213418" text-anchor="middle" font-family="Helvetica Neue, Helvetica, Arial, sans-serif" font-size="21" font-weight="700" fill="#242424">0.69</text><text x="642.5" y="567" text-anchor="middle" font-family="Helvetica Neue, Helvetica, Arial, sans-serif" font-size="17" fill="#6B6B6B">26/02</text><path d="M705.4 535 L705.4 295.5237651444548 Q705.4 291.5237651444548 709.4 291.5237651444548
      L745.6 291.5237651444548 Q749.6 291.5237651444548 749.6 295.5237651444548 L749.6 535 Z" fill="#1A7F4B"/><text x="727.5" y="275.5237651444548" text-anchor="middle" font-family="Helvetica Neue, Helvetica, Arial, sans-serif" font-size="21" font-weight="700" fill="#242424">0.55</text><text x="727.5" y="567" text-anchor="middle" font-family="Helvetica Neue, Helvetica, Arial, sans-serif" font-size="17" fill="#6B6B6B">26/03</text><path d="M790.4 535 L790.4 353.0726933830382 Q790.4 349.0726933830382 794.4 349.0726933830382
      L830.6 349.0726933830382 Q834.6 349.0726933830382 834.6 353.0726933830382 L834.6 535 Z" fill="#1A7F4B"/><text x="812.5" y="333.0726933830382" text-anchor="middle" font-family="Helvetica Neue, Helvetica, Arial, sans-serif" font-size="21" font-weight="700" fill="#242424">0.42</text><text x="812.5" y="567" text-anchor="middle" font-family="Helvetica Neue, Helvetica, Arial, sans-serif" font-size="17" fill="#6B6B6B">26/04</text><path d="M875.4 535 L875.4 384.06057781919856 Q875.4 380.06057781919856 879.4 380.06057781919856
      L915.6 380.06057781919856 Q919.6 380.06057781919856 919.6 384.06057781919856 L919.6 535 Z" fill="#1A7F4B"/><text x="897.5" y="364.06057781919856" text-anchor="middle" font-family="Helvetica Neue, Helvetica, Arial, sans-serif" font-size="21" font-weight="700" fill="#242424">0.35</text><text x="897.5" y="567" text-anchor="middle" font-family="Helvetica Neue, Helvetica, Arial, sans-serif" font-size="17" fill="#6B6B6B">26/05</text><path d="M960.4 535 L960.4 428.32898415657036 Q960.4 424.32898415657036 964.4 424.32898415657036
      L1000.6 424.32898415657036 Q1004.6 424.32898415657036 1004.6 428.32898415657036 L1004.6 535 Z" fill="#1A7F4B"/><text x="982.5" y="408.32898415657036" text-anchor="middle" font-family="Helvetica Neue, Helvetica, Arial, sans-serif" font-size="21" font-weight="700" fill="#242424">0.25</text><text x="982.5" y="567" text-anchor="middle" font-family="Helvetica Neue, Helvetica, Arial, sans-serif" font-size="17" fill="#6B6B6B">26/06</text><path d="M1045.4 535 L1045.4 437.1826654240447 Q1045.4 433.1826654240447 1049.4 433.1826654240447
      L1085.6000000000001 433.1826654240447 Q1089.6000000000001 433.1826654240447 1089.6000000000001 437.1826654240447 L1089.6000000000001 535 Z" fill="#C2410C"/><text x="1067.5" y="417.1826654240447" text-anchor="middle" font-family="Helvetica Neue, Helvetica, Arial, sans-serif" font-size="21" font-weight="700" fill="#242424">0.23</text><text x="1067.5" y="567" text-anchor="middle" font-family="Helvetica Neue, Helvetica, Arial, sans-serif" font-size="17" fill="#6B6B6B">26/07</text>
  <text x="64" y="600" font-family="Helvetica Neue, Helvetica, Arial, sans-serif" font-size="15" fill="#A79F91">Source: Dubai Statistics Center</text>
</svg>